<?xml version="1.0" encoding="UTF-8"?>
<svg id="Layer_1" xmlns="http://www.w3.org/2000/svg" version="1.1" viewBox="0 0 14 14">
  <!-- Generator: Adobe Illustrator 29.5.1, SVG Export Plug-In . SVG Version: 2.1.0 Build 141)  -->
  <defs>
    <style>
      .st0 {
        fill: #fff;
      }
    </style>
  </defs>
  <path class="st0" d="M8.68.31c.77,0,1.59.02,2.28.1.35.04.68.1.97.18.24.07.52.18.75.37l.09.09.09.1c.19.23.3.51.36.75.09.29.14.63.18.97.08.69.1,1.51.09,2.28,0,.77-.04,1.52-.07,2.07-.02.27-.03.5-.04.66,0,.08-.01.14-.01.18,0,.02,0,.04,0,.05,0,0,0,.01,0,.01,0,0,0,0,0,0h0s-.05,0-.75-.06c-.69-.06-.74-.06-.75-.06h0s0,0,0-.01c0,0,0-.03,0-.04,0-.04,0-.1.01-.18.01-.15.03-.37.04-.64.03-.53.06-1.25.07-1.99,0-.75-.01-1.49-.09-2.1,0-.02,0-.04,0-.07L1.29,13.59c-.29.29-.77.29-1.06,0-.29-.29-.29-.77,0-1.06L10.85,1.91s-.04,0-.07,0c-.6-.07-1.35-.09-2.1-.09-.74,0-1.46.04-1.99.07-.27.02-.49.03-.64.04-.08,0-.14,0-.18.01-.02,0-.03,0-.04,0,0,0,0,0-.01,0h0c-.41.03-.77-.27-.81-.68-.03-.41.27-.78.68-.81h0s0,0,.01,0c.01,0,.03,0,.05,0,.04,0,.11,0,.18-.01.16-.01.39-.03.66-.04.55-.03,1.29-.06,2.07-.07ZM13.37,8.12c-.03.41-.4.72-.81.68-.41-.03-.72-.4-.68-.81l1.49.13Z"/>
</svg>