<svg width="14" height="14" viewBox="0 0 14 14" fill="none" xmlns="http://www.w3.org/2000/svg">
<path d="M8.6796 0.309969C9.44915 0.304202 10.2692 0.325435 10.9628 0.406649C11.3086 0.447143 11.6448 0.505015 11.9364 0.590243C12.1722 0.659149 12.4553 0.766488 12.6855 0.955477L12.7802 1.04141L12.8671 1.13712C13.0557 1.36735 13.1627 1.6505 13.2314 1.88614C13.3164 2.17788 13.3747 2.51391 13.415 2.85977C13.4957 3.55338 13.516 4.37351 13.5097 5.14298C13.5033 5.91697 13.4692 6.66131 13.4374 7.21036C13.4215 7.48522 13.406 7.71264 13.3944 7.87149C13.3887 7.9508 13.3842 8.01323 13.3808 8.05606C13.3791 8.07718 13.3778 8.09356 13.3769 8.10489C13.3764 8.11057 13.3761 8.11552 13.3759 8.11856C13.3758 8.12005 13.375 8.12164 13.3749 8.12247V8.12345C13.3719 8.12328 13.3262 8.11908 12.6278 8.05997C11.9384 8.00161 11.8849 7.9978 11.8808 7.99747V7.99356C11.881 7.99118 11.8814 7.98759 11.8818 7.98282C11.8826 7.97286 11.8841 7.95777 11.8857 7.9379C11.8888 7.8979 11.8928 7.83823 11.8984 7.76212C11.9095 7.60964 11.9249 7.38987 11.9403 7.12345C11.9713 6.58955 12.0036 5.87147 12.0097 5.13028C12.0158 4.38467 11.9949 3.63569 11.9247 3.03263C11.9221 3.0101 11.9177 2.9881 11.915 2.96622L1.288 13.5863C0.99503 13.8791 0.520256 13.8793 0.227456 13.5863C-0.0653223 13.2934 -0.0654815 12.8186 0.227456 12.5258L10.8544 1.90567C10.8327 1.90294 10.8104 1.89853 10.788 1.89591C10.1851 1.82534 9.43672 1.80439 8.69132 1.80997C7.95015 1.81552 7.23206 1.8468 6.69816 1.87735C6.43167 1.8926 6.21199 1.90831 6.05949 1.91934C5.98329 1.92486 5.92373 1.9289 5.88371 1.93204C5.86383 1.9336 5.84877 1.93513 5.83878 1.93595C5.83378 1.93635 5.82945 1.93673 5.82706 1.93692H5.82414C5.41155 1.9714 5.04929 1.66494 5.01456 1.25235C4.97991 0.839591 5.28637 0.476462 5.69914 0.441805H5.70402C5.70699 0.44156 5.71123 0.441274 5.71671 0.440828C5.72807 0.439905 5.74507 0.438606 5.76652 0.436922C5.80937 0.433558 5.87175 0.42899 5.95109 0.42325C6.10997 0.411758 6.3373 0.396013 6.61222 0.380282C7.1613 0.348866 7.90559 0.315772 8.6796 0.309969ZM13.3749 8.12345C13.34 8.53618 12.9771 8.84295 12.5644 8.80802C12.1518 8.77303 11.8461 8.40998 11.8808 7.99747L13.3749 8.12345Z" fill="#1C1C1C"/>
</svg>
